<svg xmlns="http://www.w3.org/2000/svg" viewBox="0 0 398.13 124.23"><defs><style>.cls-1{stroke:#000;stroke-miterlimit:10;stroke-width:2px;}</style></defs><g id="Datensammler"><path class="cls-1" d="M32.22,73.42A3.27,3.27,0,0,1,29,70.18V52.46a3.26,3.26,0,0,1,3.24-3.24h6.69c8.53-.1,13.33,3.48,13.33,12.08S47.4,73.49,38.91,73.42Zm0-22.56a1.58,1.58,0,0,0-1.53,1.6V70.18a1.61,1.61,0,0,0,1.53,1.6h6.69c7.62.07,11.62-2.75,11.62-10.48s-4-10.48-11.62-10.44Z"/><path class="cls-1" d="M81.66,73.07,71.56,51.76a1.8,1.8,0,0,0-1.63-1,1.75,1.75,0,0,0-1.6,1L58.23,73.07a.92.92,0,0,1-1.15.42.86.86,0,0,1-.38-1.15L66.79,51a3.52,3.52,0,0,1,3.14-2,3.58,3.58,0,0,1,3.17,2L83.19,72.34a.91.91,0,0,1-.42,1.15A.87.87,0,0,1,81.66,73.07ZM68.6,64.89a1.33,1.33,0,1,1,1.33,1.22A1.2,1.2,0,0,1,68.6,64.89Z"/><path class="cls-1" d="M93.18,72.72V52.46a1.58,1.58,0,0,0-1.56-1.6H83.26a.82.82,0,1,1,0-1.64h8.36a3.24,3.24,0,0,1,3.27,3.24V72.72a.89.89,0,0,1-.87.84A.86.86,0,0,1,93.18,72.72Zm4-21.86a.82.82,0,1,1,0-1.64h7.66a.82.82,0,1,1,0,1.64Z"/><path class="cls-1" d="M133.71,50.06a.82.82,0,0,1-.84.8H114.11a1.61,1.61,0,0,0-1.53,1.63v5.57a.86.86,0,0,1-.87.84.85.85,0,0,1-.84-.84v-5.6a3.23,3.23,0,0,1,3.24-3.24h18.76A.83.83,0,0,1,133.71,50.06Zm0,22.56a.83.83,0,0,0-.84-.84H114.11a1.6,1.6,0,0,1-1.53-1.6V63.74a1.58,1.58,0,0,1,1.53-1.6h14.1a.82.82,0,1,0,0-1.64h-14.1a3.23,3.23,0,0,0-3.24,3.24v6.44a3.26,3.26,0,0,0,3.24,3.24h18.76A.82.82,0,0,0,133.71,72.62Z"/><path class="cls-1" d="M156.65,72,144.4,51.55a1.58,1.58,0,0,0-1.36-.8,1.55,1.55,0,0,0-1.53,1.53V72.72a.85.85,0,0,1-.84.84.86.86,0,0,1-.87-.84V52.28A3.26,3.26,0,0,1,143,49.05a3.32,3.32,0,0,1,2.82,1.63l12.26,20.44a1.55,1.55,0,0,0,2.89-.8V49.92a.83.83,0,0,1,.83-.87.84.84,0,0,1,.87.87v20.4A3.27,3.27,0,0,1,156.65,72Z"/><path class="cls-1" d="M169.22,70.49a.85.85,0,0,1,.87-1.46,18.47,18.47,0,0,0,9.72,2.85c3.58,0,8.84-1.25,8.84-5s-4.42-4.15-9.09-4.56c-5.08-.46-10.41-1.05-10.41-6.48,0-5,5.54-6.75,10.24-6.75a20.31,20.31,0,0,1,9.85,2.75.84.84,0,1,1-.83,1.46,18.62,18.62,0,0,0-9-2.54c-3.66,0-8.53,1.11-8.53,5.08,0,3.55,3.31,4.28,8.74,4.67,5.12.34,10.76,1.07,10.76,6.37,0,4.84-6.06,6.92-10.55,6.72A20.64,20.64,0,0,1,169.22,70.49Z"/><path class="cls-1" d="M219.78,73.07l-10.1-21.31a1.81,1.81,0,0,0-1.64-1,1.76,1.76,0,0,0-1.6,1l-10.1,21.31a.9.9,0,0,1-1.14.42.87.87,0,0,1-.39-1.15L204.91,51a3.51,3.51,0,0,1,3.13-2,3.57,3.57,0,0,1,3.17,2l10.1,21.31a.92.92,0,0,1-.42,1.15A.86.86,0,0,1,219.78,73.07Zm-13.06-8.18A1.33,1.33,0,1,1,208,66.11,1.2,1.2,0,0,1,206.72,64.89Z"/><path class="cls-1" d="M250.76,72.72V52.28a1.54,1.54,0,0,0-1.53-1.53,1.58,1.58,0,0,0-1.36.8l-5.53,9a3.22,3.22,0,0,1-2.82,1.61,3.26,3.26,0,0,1-2.79-1.61l-5.53-9a1.63,1.63,0,0,0-1.36-.8,1.54,1.54,0,0,0-1.53,1.53V72.72a.86.86,0,0,1-.87.84.85.85,0,0,1-.84-.84V52.28a3.25,3.25,0,0,1,3.24-3.23,3.33,3.33,0,0,1,2.82,1.63l5.53,9a1.58,1.58,0,0,0,1.33.81,1.7,1.7,0,0,0,1.35-.81l5.54-9a3.29,3.29,0,0,1,2.82-1.63,3.25,3.25,0,0,1,3.24,3.23V72.72a.85.85,0,0,1-.84.84A.86.86,0,0,1,250.76,72.72Z"/><path class="cls-1" d="M283.59,72.72V52.28a1.54,1.54,0,0,0-1.53-1.53,1.59,1.59,0,0,0-1.36.8l-5.53,9a3.22,3.22,0,0,1-2.82,1.61,3.26,3.26,0,0,1-2.79-1.61l-5.53-9a1.63,1.63,0,0,0-1.36-.8,1.54,1.54,0,0,0-1.53,1.53V72.72a.86.86,0,0,1-1.71,0V52.28a3.25,3.25,0,0,1,3.24-3.23,3.33,3.33,0,0,1,2.82,1.63l5.54,9a1.56,1.56,0,0,0,1.32.81,1.73,1.73,0,0,0,1.36-.81l5.53-9a3.29,3.29,0,0,1,2.82-1.63,3.25,3.25,0,0,1,3.24,3.23V72.72a.85.85,0,0,1-.84.84A.86.86,0,0,1,283.59,72.72Z"/><path class="cls-1" d="M295.5,73.42a3.23,3.23,0,0,1-3.24-3.17V49.92a.86.86,0,1,1,1.71,0V70.25a1.55,1.55,0,0,0,1.53,1.53h15.74a.8.8,0,0,1,.83.84.79.79,0,0,1-.83.8Z"/><path class="cls-1" d="M340.14,50.06a.82.82,0,0,1-.84.8H320.53A1.61,1.61,0,0,0,319,52.49v5.57a.85.85,0,0,1-.87.84.84.84,0,0,1-.83-.84v-5.6a3.23,3.23,0,0,1,3.23-3.24H339.3A.83.83,0,0,1,340.14,50.06Zm0,22.56a.83.83,0,0,0-.84-.84H320.53a1.61,1.61,0,0,1-1.53-1.6V63.74a1.58,1.58,0,0,1,1.53-1.6h14.11a.82.82,0,0,0,.83-.8.82.82,0,0,0-.83-.84H320.53a3.23,3.23,0,0,0-3.23,3.24v6.44a3.26,3.26,0,0,0,3.23,3.24H339.3A.82.82,0,0,0,340.14,72.62Z"/><path class="cls-1" d="M346.23,72.72V52.46a3.23,3.23,0,0,1,3.24-3.24h12.15c3.93,0,7.1,2.89,7.1,6.37a6.89,6.89,0,0,1-7.07,6.55h-2.78l9.95,10a.76.76,0,0,1,0,1.22.91.91,0,0,1-1.22,0L356.22,61.89a.8.8,0,0,1-.17-.9.81.81,0,0,1,.76-.52h4.84a5.25,5.25,0,0,0,5.4-4.88c0-2.54-2.44-4.77-5.43-4.77H349.47a1.61,1.61,0,0,0-1.53,1.64V72.72a.87.87,0,0,1-.88.84A.85.85,0,0,1,346.23,72.72Z"/></g></svg>